<?xml version="1.0" encoding="UTF-8"?>
<svg width="163px" height="49px" viewBox="0 0 163 49" version="1.1" xmlns="http://www.w3.org/2000/svg" xmlns:xlink="http://www.w3.org/1999/xlink">
    <!-- Generator: Sketch 60.1 (88133) - https://sketch.com -->
    <title>Group</title>
    <desc>Created with Sketch.</desc>
    <g id="Page-1" stroke="none" stroke-width="1" fill="none" fill-rule="evenodd">
        <g id="Group" fill-rule="nonzero">
            <path d="M114.23,8.1248835 C113.693704,8.0753351 113.159213,8.2367587 112.74,8.5748835 C112.32382,8.92160594 112.058513,9.4163684 112,9.9548835 L111.9,11.0448835 C105.810825,3.86693819 96.8130056,-0.187302341 87.4021964,0.00665497974 C77.9913873,0.200612304 69.1682539,4.6221437 63.38,12.0448835 C62.9438739,12.6169367 62.8377372,13.3750559 63.1,14.0448835 C63.3548193,14.7360604 63.9689586,15.2312059 64.698457,15.3336283 C65.4279555,15.4360508 66.1547006,15.129167 66.59,14.5348835 C71.6836108,8.03606147 79.4509409,4.19951997 87.7074828,4.10425966 C95.9640247,4.00899934 103.817804,7.66531142 109.06,14.0448835 L107.47,13.8348835 C106.751839,13.728198 106.032265,14.0190898 105.59,14.5948835 C105.155736,15.1677122 105.049741,15.9248216 105.31,16.5948835 C105.581051,17.270385 106.19768,17.7453042 106.92,17.8348835 L113.13,18.6850485 L113.4,18.6850485 C113.861416,18.689114 114.3101,18.5336643 114.67,18.2448835 C115.099943,17.8982807 115.373562,17.3942463 115.43,16.8448835 L116.05,10.3548835 C116.114294,9.8159002 115.956751,9.2739337 115.613541,8.85340641 C115.27033,8.43287913 114.770933,8.16991476 114.23,8.1248835 Z" id="Path" fill="#FDCC08"></path>
            <g id="Смахни-и-Выиграй-Copy" transform="translate(0.000000, 21.044884)">
                <path d="M6.68660818,21.8076923 C7.52481547,21.8076923 8.29317215,21.6130676 8.99167823,21.2238184 C9.69018431,20.8345691 10.2997896,20.2701575 10.8204941,19.5305839 C11.3411986,18.7910102 11.7603023,17.9006025 12.0778051,16.8593605 C12.3953079,15.8181186 12.5921596,14.6357739 12.6683602,13.3123262 L12.6683602,13.3123262 L9.77273503,13.3123262 C9.65843403,14.7136237 9.3441063,15.8424468 8.82975182,16.6987952 C8.31539735,17.5551436 7.60101613,17.9833179 6.68660818,17.9833179 C6.01350232,17.9833179 5.44199735,17.7838277 4.97209326,17.3848471 C4.50218917,16.9858665 4.12118585,16.4555144 3.82908332,15.7937905 C3.53698078,15.1320667 3.32425392,14.3876274 3.19090276,13.5604727 C3.0575516,12.7333179 2.99087602,11.881835 2.99087602,11.0060241 C2.99087602,10.0912882 3.0575516,9.20574606 3.19090276,8.34939759 C3.32425392,7.49304912 3.53698078,6.72914736 3.82908332,6.05769231 C4.12118585,5.38623726 4.50218917,4.85101947 4.97209326,4.45203892 C5.44199735,4.05305838 6.01350232,3.85356812 6.68660818,3.85356812 C7.05491138,3.85356812 7.40733945,3.94601483 7.74389238,4.13090825 C8.08044531,4.31580166 8.38207293,4.57367934 8.64877525,4.90454124 C8.91547757,5.23540315 9.13772951,5.61978684 9.31553105,6.05769231 C9.49333259,6.49559778 9.60763359,6.97729379 9.65843403,7.50278035 L9.65843403,7.50278035 L12.5540592,7.50278035 C12.4651584,6.29610751 12.2492566,5.22567192 11.9063536,4.29147359 C11.5634506,3.35727525 11.1284719,2.57391103 10.6014172,1.94138091 C10.0743626,1.30885079 9.47428243,0.827154772 8.80117658,0.496292864 C8.12807072,0.165430955 7.42321459,0 6.68660818,0 C5.63249901,0 4.69269083,0.282205747 3.86718365,0.846617238 C3.04167647,1.41102873 2.34317039,2.18952734 1.77166541,3.18211307 C1.20016044,4.1746988 0.76200663,5.34244671 0.457203978,6.68535681 C0.152401326,8.02826691 0,9.46848934 0,11.0060241 C0,12.5240964 0.152401326,13.9399907 0.457203978,15.2537071 C0.76200663,16.5674235 1.20016044,17.7108434 1.77166541,18.6839666 C2.34317039,19.6570898 3.04167647,20.4209917 3.86718365,20.9756719 C4.69269083,21.5303522 5.63249901,21.8076923 6.68660818,21.8076923 Z M16.1822395,21.3405931 L16.1822395,9.86746988 L16.23939,9.86746988 L18.3539584,21.3405931 L20.9066806,21.3405931 L23.021249,9.86746988 L23.0783995,9.86746988 L23.0783995,21.3405931 L25.6311217,21.3405931 L25.6311217,6.24745134 L21.7067876,6.24745134 L19.6684198,17.2242817 L19.5922192,17.2242817 L17.5538514,6.24745134 L13.6295173,6.24745134 L13.6295173,21.3405931 L16.1822395,21.3405931 Z M29.8308069,21.7201112 C30.4404123,21.7201112 31.0373174,21.5838739 31.6215225,21.3113994 C32.2057276,21.038925 32.713732,20.5620945 33.1455358,19.8809082 C33.1582359,20.1339203 33.1804611,20.3820668 33.2122114,20.6253475 C33.2439617,20.8686283 33.285237,21.1070436 33.3360374,21.3405931 L33.3360374,21.3405931 L36.0792613,21.3405931 C35.9522602,21.0291936 35.8633595,20.5620945 35.812559,19.9392956 C35.7617585,19.3164968 35.7363583,18.6645041 35.7363583,17.9833179 L35.7363583,17.9833179 L35.7363583,10.1302132 C35.7363583,9.23493975 35.6030072,8.50509731 35.3363048,7.94068582 C35.0696025,7.37627433 34.7266995,6.93836887 34.3075959,6.62696942 C33.8884923,6.31556997 33.4249383,6.10634848 32.9169338,5.99930491 C32.4089293,5.89226135 31.907275,5.83873957 31.4119707,5.83873957 C30.8531659,5.83873957 30.3070611,5.92145505 29.7736564,6.08688601 C29.2402518,6.25231697 28.7576476,6.5296571 28.3258439,6.91890639 C27.8940401,7.30815569 27.538437,7.82877665 27.2590346,8.48076923 C26.9796321,9.13276181 26.8208808,9.9355885 26.7827804,10.8892493 L26.7827804,10.8892493 L29.487904,10.8892493 C29.5387044,10.0718258 29.716506,9.48795181 30.0213086,9.13762743 C30.3261113,8.78730306 30.7452149,8.61214087 31.2786195,8.61214087 C31.5199217,8.61214087 31.7453486,8.63646895 31.9549004,8.68512512 C32.1644523,8.73378128 32.3486039,8.83109361 32.5073552,8.97706209 C32.6661066,9.12303058 32.7931077,9.33225209 32.8883585,9.6047266 C32.9836094,9.87720111 33.0312348,10.2275255 33.0312348,10.6556997 C33.0439349,11.083874 32.9613842,11.4098702 32.7835826,11.6336886 C32.6057811,11.857507 32.364479,12.0278035 32.0596763,12.1445783 C31.7548737,12.2613531 31.4056207,12.3489342 31.0119172,12.4073216 C30.6182138,12.465709 30.2181603,12.5435589 29.8117568,12.6408712 C29.4053533,12.7381835 29.0021247,12.8695551 28.6020713,13.0349861 C28.2020178,13.2004171 27.8464146,13.4485635 27.535262,13.7794254 C27.2241093,14.1102873 26.970107,14.5530584 26.7732553,15.1077386 C26.5764037,15.6624189 26.4779778,16.3679333 26.4779778,17.2242817 C26.4779778,18.0027804 26.5637035,18.6742355 26.735155,19.2386469 C26.9066065,19.8030583 27.1447336,20.2701575 27.4495362,20.6399444 C27.7543389,21.0097313 28.109942,21.2822057 28.5163455,21.4573679 C28.922749,21.6325301 29.3609028,21.7201112 29.8308069,21.7201112 Z M30.8404657,18.9759036 C30.6245639,18.9759036 30.4150121,18.9467099 30.2118103,18.8883225 C30.0086085,18.8299351 29.8308069,18.7277572 29.6784056,18.5817887 C29.5260043,18.4358202 29.4053533,18.2411955 29.3164525,17.9979147 C29.2275517,17.754634 29.1831013,17.4383688 29.1831013,17.0491196 C29.1831013,16.6598703 29.2275517,16.3387396 29.3164525,16.0857275 C29.4053533,15.8327154 29.5228292,15.623494 29.6688805,15.458063 C29.8149318,15.2926321 29.9832083,15.1612604 30.1737099,15.0639481 C30.3642116,14.9666358 30.5674134,14.8887859 30.7833152,14.8303985 C30.9992171,14.7720111 31.215119,14.723355 31.4310209,14.68443 C31.6469227,14.6455051 31.8564745,14.5968489 32.0596763,14.5384615 C32.2628781,14.4800741 32.4470297,14.4070899 32.6121311,14.3195088 C32.7772326,14.2319277 32.9169338,14.1102873 33.0312348,13.9545876 L33.0312348,13.9545876 L33.0312348,15.5018536 C33.0312348,15.7354032 33.0153597,16.0468026 32.9836094,16.4360519 C32.9518591,16.8253012 32.8661333,17.2096849 32.7264321,17.589203 C32.586731,17.968721 32.370829,18.2947174 32.0787265,18.5671918 C31.786624,18.8396663 31.3738704,18.9759036 30.8404657,18.9759036 Z M39.0406858,21.3405931 L41.0981037,16.5820204 L43.1555216,21.3405931 L46.2416484,21.3405931 L42.6030668,13.3123262 L45.8415949,6.24745134 L42.8507189,6.24745134 L41.136204,10.1886006 L39.4026389,6.24745134 L36.3165121,6.24745134 L39.5550403,13.3999073 L36.0117094,21.3405931 L39.0406858,21.3405931 Z M49.1840227,21.3405931 L49.1840227,15.0055607 L53.013106,15.0055607 L53.013106,21.3405931 L55.7182296,21.3405931 L55.7182296,6.24745134 L53.013106,6.24745134 L53.013106,11.7358665 L49.1840227,11.7358665 L49.1840227,6.24745134 L46.4788992,6.24745134 L46.4788992,21.3405931 L49.1840227,21.3405931 Z M60.051266,21.3405931 L63.7660483,11.1227989 L63.7660483,21.3405931 L66.3568708,21.3405931 L66.3568708,6.24745134 L63.2897942,6.24745134 L59.5750118,16.4652456 L59.5750118,6.24745134 L56.9841893,6.24745134 L56.9841893,21.3405931 L60.051266,21.3405931 Z M75.1943951,21.3405931 L78.9091775,11.1227989 L78.9091775,21.3405931 L81.5,21.3405931 L81.5,6.24745134 L78.4329233,6.24745134 L74.718141,16.4652456 L74.718141,6.24745134 L72.1273185,6.24745134 L72.1273185,21.3405931 L75.1943951,21.3405931 Z" id="Смахнии" fill="#000000"></path>
                <path d="M94.1510215,21.5940265 C94.7627195,21.5940265 95.3584879,21.4745575 95.9383265,21.2356195 C96.5181652,20.9966814 97.0342854,20.6283186 97.4866871,20.130531 C97.9390887,19.6327433 98.2990985,18.9905973 98.5667163,18.2040929 C98.8343342,17.4175885 98.9681431,16.4867257 98.9681431,15.4115044 C98.9681431,14.0774336 98.7610579,12.9375 98.3468874,11.9917035 C97.9327168,11.0459071 97.3050892,10.3838496 96.4640045,10.005531 C97.0757025,9.54756638 97.5376619,8.96017699 97.8498827,8.24336283 C98.1621036,7.52654867 98.318214,6.63053097 98.318214,5.55530973 C98.318214,4.55973452 98.2130784,3.72345133 98.0028072,3.04646018 C97.7925361,2.36946902 97.4962448,1.82688054 97.1139336,1.41869469 C96.7316224,1.01050885 96.2728489,0.716814159 95.7376131,0.537610619 C95.2023774,0.35840708 94.609795,0.26880531 93.9598659,0.26880531 L93.9598659,0.26880531 L87.537037,0.26880531 L87.537037,21.5940265 L94.1510215,21.5940265 Z M93.5775546,8.90044248 L90.5381803,8.90044248 L90.5381803,3.91261062 L93.3481679,3.91261062 C93.6157858,3.91261062 93.8738458,3.94745576 94.1223482,4.01714602 C94.3708505,4.08683628 94.5906794,4.21128319 94.781835,4.39048673 C94.9729907,4.56969027 95.1259152,4.81858407 95.2406085,5.13716814 C95.3553019,5.45575222 95.4126486,5.86393805 95.4126486,6.36172566 C95.4126486,7.25774336 95.2406085,7.90486726 94.8965284,8.30309735 C94.5524483,8.70132743 94.1127904,8.90044248 93.5775546,8.90044248 L93.5775546,8.90044248 Z M93.7495947,17.9502212 L90.5381803,17.9502212 L90.5381803,12.0962389 L93.8069414,12.0962389 C94.4568705,12.0962389 94.9793625,12.3301991 95.3744175,12.7981195 C95.7694724,13.2660398 95.9669999,14.0475664 95.9669999,15.1426991 C95.9669999,15.7002213 95.9064672,16.1581858 95.785402,16.5165929 C95.6643369,16.875 95.5018546,17.1587389 95.2979552,17.3678097 C95.0940559,17.5768805 94.8582973,17.7262168 94.5906794,17.8158186 C94.3230616,17.9054204 94.0426999,17.9502212 93.7495947,17.9502212 L93.7495947,17.9502212 Z M105.132033,21.5940265 C105.667268,21.5940265 106.161087,21.4894912 106.613489,21.2804204 C107.065891,21.0713496 107.460945,20.7577434 107.798653,20.3396018 C108.136362,19.9214602 108.397607,19.3938053 108.582392,18.7566372 C108.767176,18.1194691 108.859567,17.3727877 108.859567,16.5165929 C108.859567,15.6803097 108.763989,14.9485619 108.572834,14.3213496 C108.381678,13.6941372 108.123618,13.1664823 107.798653,12.738385 C107.473689,12.3102876 107.091378,11.9917035 106.65172,11.7826327 C106.212062,11.5735619 105.743731,11.4690265 105.246726,11.4690265 L105.246726,11.4690265 L102.627894,11.4690265 L102.627894,6.15265487 L99.9134841,6.15265487 L99.9134841,21.5940265 L105.132033,21.5940265 Z M112.720911,21.5940265 L112.720911,6.15265487 L110.025616,6.15265487 L110.025616,21.5940265 L112.720911,21.5940265 Z M104.482103,18.6670354 L102.627894,18.6670354 L102.627894,14.3362832 L104.462988,14.3362832 C104.934505,14.3362832 105.32956,14.5105088 105.648153,14.8589602 C105.966746,15.2074115 106.126042,15.7599558 106.126042,16.5165929 C106.126042,17.27323 105.976304,17.8207965 105.676826,18.159292 C105.377349,18.4977876 104.979108,18.6670354 104.482103,18.6670354 L104.482103,18.6670354 Z M117.068822,21.5940265 L120.796356,11.1404867 L120.796356,21.5940265 L123.396073,21.5940265 L123.396073,6.15265487 L120.318467,6.15265487 L116.590933,16.6061947 L116.590933,6.15265487 L113.991216,6.15265487 L113.991216,21.5940265 L117.068822,21.5940265 Z M127.476366,21.5940265 L127.476366,9.34845133 L132.217025,9.34845133 L132.217025,6.15265487 L124.761956,6.15265487 L124.761956,21.5940265 L127.476366,21.5940265 Z M135.245963,27 L135.245963,19.6825221 L135.284194,19.6825221 C135.61553,20.4391592 136.039258,21.011615 136.555379,21.3998894 C137.071499,21.7881637 137.635408,21.9823009 138.247106,21.9823009 C138.973497,21.9823009 139.607497,21.7632744 140.149104,21.3252212 C140.690711,20.8871681 141.143113,20.2997788 141.506309,19.5630531 C141.869505,18.8263274 142.140309,17.9800885 142.318721,17.0243363 C142.497132,16.0685841 142.586338,15.0730089 142.586338,14.0376106 C142.586338,12.9424779 142.497132,11.892146 142.318721,10.886615 C142.140309,9.88108407 141.866319,8.99999999 141.496751,8.24336283 C141.127184,7.48672567 140.662038,6.87942477 140.101315,6.42146018 C139.540593,5.96349558 138.871548,5.73451327 138.094181,5.73451327 C137.482483,5.73451327 136.921761,5.92367256 136.412012,6.30199115 C135.902263,6.68030974 135.481721,7.28761062 135.150385,8.12389381 L135.150385,8.12389381 L135.112154,8.12389381 L135.112154,6.15265487 L132.531553,6.15265487 L132.531553,27 L135.245963,27 Z M137.520714,18.8163717 C137.074685,18.8163717 136.701932,18.6769911 136.402454,18.3982301 C136.102977,18.1194691 135.860847,17.7560841 135.676063,17.3080752 C135.491279,16.8600664 135.35747,16.3423673 135.274636,15.7549779 C135.191802,15.1675885 135.150385,14.5553097 135.150385,13.9181416 C135.150385,13.300885 135.188616,12.6886062 135.265078,12.0813053 C135.34154,11.4740044 135.472163,10.9413717 135.656947,10.4834071 C135.841731,10.0254425 136.083861,9.65210178 136.383339,9.36338496 C136.682816,9.07466814 137.055569,8.93030973 137.501599,8.93030973 C137.934885,8.93030973 138.301266,9.07466814 138.600744,9.36338496 C138.900221,9.65210178 139.145537,10.0304203 139.336693,10.4983407 C139.527848,10.9662611 139.664844,11.4988938 139.747677,12.0962389 C139.830511,12.6935841 139.871929,13.300885 139.871929,13.9181416 C139.871929,14.5553097 139.833697,15.1675885 139.757235,15.7549779 C139.680773,16.3423673 139.55015,16.8600664 139.365366,17.3080752 C139.180582,17.7560841 138.938452,18.1194691 138.638975,18.3982301 C138.339497,18.6769911 137.966744,18.8163717 137.520714,18.8163717 Z M146.360783,21.9823009 C146.972481,21.9823009 147.571435,21.8429203 148.157645,21.5641593 C148.743856,21.2853983 149.253604,20.7975663 149.68689,20.1006637 C149.699634,20.3595133 149.721935,20.613385 149.753795,20.8622788 C149.785654,21.1111725 149.827071,21.3550885 149.878046,21.5940265 L149.878046,21.5940265 L152.630687,21.5940265 C152.50325,21.2754424 152.414044,20.7975663 152.363069,20.1603982 C152.312094,19.5232301 152.286607,18.8561946 152.286607,18.159292 L152.286607,18.159292 L152.286607,10.125 C152.286607,9.20907079 152.152798,8.46238938 151.88518,7.88495575 C151.617562,7.30752213 151.273482,6.85951328 150.85294,6.5409292 C150.432397,6.22234513 149.967252,6.00829647 149.457504,5.89878319 C148.947755,5.78926991 148.444379,5.73451327 147.947374,5.73451327 C147.386651,5.73451327 146.838672,5.81913716 146.303436,5.98838496 C145.7682,6.15763275 145.28394,6.44137169 144.850653,6.83960177 C144.417367,7.23783185 144.060544,7.77046461 143.780182,8.4375 C143.49982,9.10453539 143.340524,9.92588495 143.302293,10.9015487 L143.302293,10.9015487 L146.016702,10.9015487 C146.067678,10.0652655 146.246089,9.46792035 146.551938,9.10951327 C146.857787,8.75110619 147.27833,8.57190265 147.813565,8.57190265 C148.055696,8.57190265 148.281897,8.59679203 148.492168,8.6465708 C148.702439,8.69634956 148.887223,8.79590708 149.046519,8.94524336 C149.205815,9.09457965 149.333252,9.30862832 149.42883,9.58738938 C149.524408,9.86615044 149.572197,10.2245575 149.572197,10.6626106 C149.584941,11.1006637 149.502106,11.4341814 149.323695,11.6631637 C149.145283,11.892146 148.903152,12.0663717 148.597303,12.1858407 C148.291454,12.3053097 147.941003,12.3949115 147.545947,12.454646 C147.150892,12.5143805 146.749465,12.5940266 146.341667,12.6935841 C145.933869,12.7931416 145.529256,12.9275442 145.127829,13.096792 C144.726402,13.2660398 144.369578,13.5199115 144.057357,13.8584071 C143.745137,14.1969026 143.490262,14.6498894 143.292735,15.2173673 C143.095208,15.7848451 142.996444,16.5066372 142.996444,17.3827434 C142.996444,18.1792036 143.082464,18.8661505 143.254504,19.4435841 C143.426544,20.0210176 143.665488,20.4988938 143.971337,20.8772124 C144.277186,21.255531 144.63401,21.534292 145.041809,21.7134956 C145.449607,21.8926991 145.889265,21.9823009 146.360783,21.9823009 Z M147.373907,19.1747788 C147.157265,19.1747788 146.946993,19.1449115 146.743094,19.085177 C146.539194,19.0254425 146.360783,18.9209071 146.207858,18.7715708 C146.054934,18.6222345 145.933869,18.4231194 145.844662,18.1742257 C145.755456,17.9253319 145.710853,17.6017699 145.710853,17.2035398 C145.710853,16.8053098 145.755456,16.47677 145.844662,16.2179204 C145.933869,15.9590707 146.051747,15.7450222 146.1983,15.5757743 C146.344853,15.4065265 146.513707,15.2721239 146.704863,15.1725664 C146.896018,15.0730089 147.099918,14.9933628 147.316561,14.9336283 C147.533203,14.8738938 147.749847,14.824115 147.96649,14.784292 C148.183132,14.744469 148.393404,14.6946903 148.597303,14.6349558 C148.801203,14.5752212 148.985986,14.5005531 149.151655,14.4109513 C149.317323,14.3213496 149.457504,14.1969026 149.572197,14.0376106 L149.572197,14.0376106 L149.572197,15.6205752 C149.572197,15.8595133 149.556268,16.1780974 149.524408,16.5763274 C149.492548,16.9745575 149.406528,17.3678097 149.266348,17.7560841 C149.126168,18.1443584 148.909524,18.4778762 148.616419,18.7566372 C148.323314,19.0353982 147.909143,19.1747788 147.373907,19.1747788 Z M158.278456,4.30088496 C158.711743,4.30088496 159.125912,4.22123893 159.520968,4.0619469 C159.916023,3.90265487 160.260103,3.64878319 160.553208,3.30033186 C160.846313,2.95188053 161.078886,2.50884956 161.250926,1.97123894 C161.422966,1.43362832 161.508986,0.776548673 161.508986,0 L161.508986,0 L159.482737,0 C159.469993,0.696902654 159.368043,1.19966814 159.176888,1.50829646 C158.985732,1.81692477 158.686255,1.97123894 158.278456,1.97123894 C157.857914,1.97123894 157.558436,1.81194691 157.380025,1.49336283 C157.201613,1.17477876 157.099663,0.676991151 157.074176,0 L157.074176,0 L155.047926,0 C155.047926,0.776548673 155.133946,1.43362832 155.305986,1.97123894 C155.478026,2.50884956 155.710599,2.95188053 156.003704,3.30033186 C156.296809,3.64878319 156.637704,3.90265487 157.026387,4.0619469 C157.41507,4.22123893 157.832427,4.30088496 158.278456,4.30088496 Z M156.672749,21.5940265 L160.400284,11.1404867 L160.400284,21.5940265 L163,21.5940265 L163,6.15265487 L159.922395,6.15265487 L156.19486,16.6061947 L156.19486,6.15265487 L153.595143,6.15265487 L153.595143,21.5940265 L156.672749,21.5940265 Z" id="Выиграй" fill="#FDCC08"></path>
            </g>
        </g>
    </g>
</svg>