<?xml version="1.0" encoding="UTF-8"?>
<svg width="164px" height="38px" viewBox="0 0 164 38" version="1.1" xmlns="http://www.w3.org/2000/svg" xmlns:xlink="http://www.w3.org/1999/xlink">
    <!-- Generator: Sketch 60.1 (88133) - https://sketch.com -->
    <title>logokz</title>
    <desc>Created with Sketch.</desc>
    <g id="Page-1" stroke="none" stroke-width="1" fill="none" fill-rule="evenodd">
        <g id="logokz" transform="translate(0.722000, 0.955116)" fill-rule="nonzero">
            <g id="Смахни-и-Выиграй" transform="translate(0.000000, 19.155884)">
                <path d="M6.669,14.193 C7.505,14.193 8.27133333,14.0663333 8.968,13.813 C9.66466667,13.5596667 10.2726667,13.1923333 10.792,12.711 C11.3113333,12.2296667 11.7293333,11.6501667 12.046,10.9725 C12.3626667,10.2948333 12.559,9.52533333 12.635,8.664 L12.635,8.664 L9.747,8.664 C9.633,9.576 9.3195,10.3106667 8.8065,10.868 C8.2935,11.4253333 7.581,11.704 6.669,11.704 C5.99766667,11.704 5.42766667,11.5741667 4.959,11.3145 C4.49033333,11.0548333 4.11033333,10.7096667 3.819,10.279 C3.52766667,9.84833333 3.3155,9.36383333 3.1825,8.8255 C3.0495,8.28716667 2.983,7.733 2.983,7.163 C2.983,6.56766667 3.0495,5.99133333 3.1825,5.434 C3.3155,4.87666667 3.52766667,4.3795 3.819,3.9425 C4.11033333,3.5055 4.49033333,3.15716667 4.959,2.8975 C5.42766667,2.63783333 5.99766667,2.508 6.669,2.508 C7.03633333,2.508 7.38783333,2.56816667 7.7235,2.6885 C8.05916667,2.80883333 8.36,2.97666667 8.626,3.192 C8.892,3.40733333 9.11366667,3.6575 9.291,3.9425 C9.46833333,4.2275 9.58233333,4.541 9.633,4.883 L9.633,4.883 L12.521,4.883 C12.4323333,4.09766667 12.217,3.401 11.875,2.793 C11.533,2.185 11.0991667,1.67516667 10.5735,1.2635 C10.0478333,0.851833333 9.44933333,0.538333333 8.778,0.323 C8.10666667,0.107666667 7.40366667,7.10542736e-15 6.669,7.10542736e-15 C5.61766667,7.10542736e-15 4.68033333,0.183666667 3.857,0.551 C3.03366667,0.918333333 2.337,1.425 1.767,2.071 C1.197,2.717 0.76,3.477 0.456,4.351 C0.152,5.225 0,6.16233333 0,7.163 C0,8.151 0.152,9.0725 0.456,9.9275 C0.76,10.7825 1.197,11.5266667 1.767,12.16 C2.337,12.7933333 3.03366667,13.2905 3.857,13.6515 C4.68033333,14.0125 5.61766667,14.193 6.669,14.193 Z M16.139626,13.889 L16.139626,6.422 L16.196626,6.422 L18.305626,13.889 L20.851626,13.889 L22.960626,6.422 L23.017626,6.422 L23.017626,13.889 L25.563626,13.889 L25.563626,4.066 L21.649626,4.066 L19.616626,11.21 L19.540626,11.21 L17.507626,4.066 L13.593626,4.066 L13.593626,13.889 L16.139626,13.889 Z M29.752252,14.136 C30.360252,14.136 30.9555853,14.0473333 31.538252,13.87 C32.1209187,13.6926667 32.6275853,13.3823333 33.058252,12.939 C33.0709187,13.1036667 33.0930853,13.2651667 33.124752,13.4235 C33.1564187,13.5818333 33.1975853,13.737 33.248252,13.889 L33.248252,13.889 L35.984252,13.889 C35.8575853,13.6863333 35.7689187,13.3823333 35.718252,12.977 C35.6675853,12.5716667 35.642252,12.1473333 35.642252,11.704 L35.642252,11.704 L35.642252,6.593 C35.642252,6.01033333 35.509252,5.53533333 35.243252,5.168 C34.977252,4.80066667 34.635252,4.51566667 34.217252,4.313 C33.799252,4.11033333 33.3369187,3.97416667 32.830252,3.9045 C32.3235853,3.83483333 31.823252,3.8 31.329252,3.8 C30.7719187,3.8 30.227252,3.85383333 29.695252,3.9615 C29.163252,4.06916667 28.6819187,4.24966667 28.251252,4.503 C27.8205853,4.75633333 27.4659187,5.09516667 27.187252,5.5195 C26.9085853,5.94383333 26.750252,6.46633333 26.712252,7.087 L26.712252,7.087 L29.410252,7.087 C29.4609187,6.555 29.638252,6.175 29.942252,5.947 C30.246252,5.719 30.664252,5.605 31.196252,5.605 C31.4369187,5.605 31.661752,5.62083333 31.870752,5.6525 C32.079752,5.68416667 32.2634187,5.7475 32.421752,5.8425 C32.5800853,5.9375 32.706752,6.07366667 32.801752,6.251 C32.896752,6.42833333 32.944252,6.65633333 32.944252,6.935 C32.9569187,7.21366667 32.8745853,7.42583333 32.697252,7.5715 C32.5199187,7.71716667 32.279252,7.828 31.975252,7.904 C31.671252,7.98 31.3229187,8.037 30.930252,8.075 C30.5375853,8.113 30.1385853,8.16366667 29.733252,8.227 C29.3279187,8.29033333 28.925752,8.37583333 28.526752,8.4835 C28.127752,8.59116667 27.7730853,8.75266667 27.462752,8.968 C27.1524187,9.18333333 26.8990853,9.4715 26.702752,9.8325 C26.5064187,10.1935 26.408252,10.6526667 26.408252,11.21 C26.408252,11.7166667 26.493752,12.1536667 26.664752,12.521 C26.835752,12.8883333 27.073252,13.1923333 27.377252,13.433 C27.681252,13.6736667 28.0359187,13.851 28.441252,13.965 C28.8465853,14.079 29.2835853,14.136 29.752252,14.136 Z M30.759252,12.35 C30.5439187,12.35 30.3349187,12.331 30.132252,12.293 C29.9295853,12.255 29.752252,12.1885 29.600252,12.0935 C29.448252,11.9985 29.3279187,11.8718333 29.239252,11.7135 C29.1505853,11.5551667 29.106252,11.3493333 29.106252,11.096 C29.106252,10.8426667 29.1505853,10.6336667 29.239252,10.469 C29.3279187,10.3043333 29.4450853,10.1681667 29.590752,10.0605 C29.7364187,9.95283333 29.904252,9.86733333 30.094252,9.804 C30.284252,9.74066667 30.4869187,9.69 30.702252,9.652 C30.9175853,9.614 31.1329187,9.58233333 31.348252,9.557 C31.5635853,9.53166667 31.7725853,9.5 31.975252,9.462 C32.1779187,9.424 32.3615853,9.3765 32.526252,9.3195 C32.6909187,9.2625 32.830252,9.18333333 32.944252,9.082 L32.944252,9.082 L32.944252,10.089 C32.944252,10.241 32.9284187,10.4436667 32.896752,10.697 C32.8650853,10.9503333 32.7795853,11.2005 32.640252,11.4475 C32.5009187,11.6945 32.2855853,11.9066667 31.994252,12.084 C31.7029187,12.2613333 31.291252,12.35 30.759252,12.35 Z M38.937878,13.889 L40.989878,10.792 L43.041878,13.889 L46.119878,13.889 L42.490878,8.664 L45.720878,4.066 L42.737878,4.066 L41.027878,6.631 L39.298878,4.066 L36.220878,4.066 L39.450878,8.721 L35.916878,13.889 L38.937878,13.889 Z M49.054504,13.889 L49.054504,9.766 L52.873504,9.766 L52.873504,13.889 L55.571504,13.889 L55.571504,4.066 L52.873504,4.066 L52.873504,7.638 L49.054504,7.638 L49.054504,4.066 L46.356504,4.066 L46.356504,13.889 L49.054504,13.889 Z M59.89313,13.889 L63.59813,7.239 L63.59813,13.889 L66.18213,13.889 L66.18213,4.066 L63.12313,4.066 L59.41813,10.716 L59.41813,4.066 L56.83413,4.066 L56.83413,13.889 L59.89313,13.889 Z M74.996382,13.889 L78.701382,7.239 L78.701382,13.889 L81.285382,13.889 L81.285382,4.066 L78.226382,4.066 L74.521382,10.716 L74.521382,4.066 L71.937382,4.066 L71.937382,13.889 L74.996382,13.889 Z" id="Смахнии" fill="#000000"></path>
                <path d="M93.899634,13.889 C94.507634,13.889 95.0998007,13.813 95.676134,13.661 C96.2524673,13.509 96.7654673,13.2746667 97.215134,12.958 C97.6648007,12.6413333 98.022634,12.2328333 98.288634,11.7325 C98.554634,11.2321667 98.687634,10.64 98.687634,9.956 C98.687634,9.10733333 98.4818007,8.38216667 98.070134,7.7805 C97.6584673,7.17883333 97.034634,6.75766667 96.198634,6.517 C96.806634,6.22566667 97.2658007,5.852 97.576134,5.396 C97.8864673,4.94 98.041634,4.37 98.041634,3.686 C98.041634,3.05266667 97.937134,2.52066667 97.728134,2.09 C97.519134,1.65933333 97.224634,1.31416667 96.844634,1.0545 C96.464634,0.794833333 96.008634,0.608 95.476634,0.494 C94.944634,0.38 94.355634,0.323 93.709634,0.323 L93.709634,0.323 L87.325634,0.323 L87.325634,13.889 L93.899634,13.889 Z M93.329634,5.814 L90.308634,5.814 L90.308634,2.641 L93.101634,2.641 C93.367634,2.641 93.624134,2.66316667 93.871134,2.7075 C94.118134,2.75183333 94.336634,2.831 94.526634,2.945 C94.716634,3.059 94.868634,3.21733333 94.982634,3.42 C95.096634,3.62266667 95.153634,3.88233333 95.153634,4.199 C95.153634,4.769 94.982634,5.18066667 94.640634,5.434 C94.298634,5.68733333 93.861634,5.814 93.329634,5.814 L93.329634,5.814 Z M93.500634,11.571 L90.308634,11.571 L90.308634,7.847 L93.557634,7.847 C94.203634,7.847 94.7229673,7.99583333 95.115634,8.2935 C95.5083007,8.59116667 95.704634,9.08833333 95.704634,9.785 C95.704634,10.1396667 95.6444673,10.431 95.524134,10.659 C95.4038007,10.887 95.2423007,11.0675 95.039634,11.2005 C94.8369673,11.3335 94.602634,11.4285 94.336634,11.4855 C94.070634,11.5425 93.7919673,11.571 93.500634,11.571 L93.500634,11.571 Z M104.81426,13.889 C105.34626,13.889 105.837093,13.8225 106.28676,13.6895 C106.736427,13.5565 107.129093,13.357 107.46476,13.091 C107.800427,12.825 108.060093,12.4893333 108.24376,12.084 C108.427427,11.6786667 108.51926,11.2036667 108.51926,10.659 C108.51926,10.127 108.42426,9.6615 108.23426,9.2625 C108.04426,8.8635 107.78776,8.52783333 107.46476,8.2555 C107.14176,7.98316667 106.76176,7.7805 106.32476,7.6475 C105.88776,7.5145 105.42226,7.448 104.92826,7.448 L104.92826,7.448 L102.32526,7.448 L102.32526,4.066 L99.62726,4.066 L99.62726,13.889 L104.81426,13.889 Z M112.35726,13.889 L112.35726,4.066 L109.67826,4.066 L109.67826,13.889 L112.35726,13.889 Z M104.16826,12.027 L102.32526,12.027 L102.32526,9.272 L104.14926,9.272 C104.617927,9.272 105.010593,9.38283333 105.32726,9.6045 C105.643927,9.82616667 105.80226,10.1776667 105.80226,10.659 C105.80226,11.1403333 105.653427,11.4886667 105.35576,11.704 C105.058093,11.9193333 104.66226,12.027 104.16826,12.027 L104.16826,12.027 Z M116.678886,13.889 L120.383886,7.239 L120.383886,13.889 L122.967886,13.889 L122.967886,4.066 L119.908886,4.066 L116.203886,10.716 L116.203886,4.066 L113.619886,4.066 L113.619886,13.889 L116.678886,13.889 Z M127.023512,13.889 L127.023512,6.099 L131.735512,6.099 L131.735512,4.066 L124.325512,4.066 L124.325512,13.889 L127.023512,13.889 Z M134.746138,17.328 L134.746138,12.673 L134.784138,12.673 C135.113471,13.1543333 135.534638,13.5185 136.047638,13.7655 C136.560638,14.0125 137.121138,14.136 137.729138,14.136 C138.451138,14.136 139.081305,13.9966667 139.619638,13.718 C140.157971,13.4393333 140.607638,13.0656667 140.968638,12.597 C141.329638,12.1283333 141.598805,11.59 141.776138,10.982 C141.953471,10.374 142.042138,9.74066667 142.042138,9.082 C142.042138,8.38533333 141.953471,7.71716667 141.776138,7.0775 C141.598805,6.43783333 141.326471,5.87733333 140.959138,5.396 C140.591805,4.91466667 140.129471,4.52833333 139.572138,4.237 C139.014805,3.94566667 138.349805,3.8 137.577138,3.8 C136.969138,3.8 136.411805,3.92033333 135.905138,4.161 C135.398471,4.40166667 134.980471,4.788 134.651138,5.32 L134.651138,5.32 L134.613138,5.32 L134.613138,4.066 L132.048138,4.066 L132.048138,17.328 L134.746138,17.328 Z M137.007138,12.122 C136.563805,12.122 136.193305,12.0333333 135.895638,11.856 C135.597971,11.6786667 135.357305,11.4475 135.173638,11.1625 C134.989971,10.8775 134.856971,10.5481667 134.774638,10.1745 C134.692305,9.80083333 134.651138,9.41133333 134.651138,9.006 C134.651138,8.61333333 134.689138,8.22383333 134.765138,7.8375 C134.841138,7.45116667 134.970971,7.11233333 135.154638,6.821 C135.338305,6.52966667 135.578971,6.29216667 135.876638,6.1085 C136.174305,5.92483333 136.544805,5.833 136.988138,5.833 C137.418805,5.833 137.782971,5.92483333 138.080638,6.1085 C138.378305,6.29216667 138.622138,6.53283333 138.812138,6.8305 C139.002138,7.12816667 139.138305,7.467 139.220638,7.847 C139.302971,8.227 139.344138,8.61333333 139.344138,9.006 C139.344138,9.41133333 139.306138,9.80083333 139.230138,10.1745 C139.154138,10.5481667 139.024305,10.8775 138.840638,11.1625 C138.656971,11.4475 138.416305,11.6786667 138.118638,11.856 C137.820971,12.0333333 137.450471,12.122 137.007138,12.122 Z M145.793764,14.136 C146.401764,14.136 146.997097,14.0473333 147.579764,13.87 C148.162431,13.6926667 148.669097,13.3823333 149.099764,12.939 C149.112431,13.1036667 149.134597,13.2651667 149.166264,13.4235 C149.197931,13.5818333 149.239097,13.737 149.289764,13.889 L149.289764,13.889 L152.025764,13.889 C151.899097,13.6863333 151.810431,13.3823333 151.759764,12.977 C151.709097,12.5716667 151.683764,12.1473333 151.683764,11.704 L151.683764,11.704 L151.683764,6.593 C151.683764,6.01033333 151.550764,5.53533333 151.284764,5.168 C151.018764,4.80066667 150.676764,4.51566667 150.258764,4.313 C149.840764,4.11033333 149.378431,3.97416667 148.871764,3.9045 C148.365097,3.83483333 147.864764,3.8 147.370764,3.8 C146.813431,3.8 146.268764,3.85383333 145.736764,3.9615 C145.204764,4.06916667 144.723431,4.24966667 144.292764,4.503 C143.862097,4.75633333 143.507431,5.09516667 143.228764,5.5195 C142.950097,5.94383333 142.791764,6.46633333 142.753764,7.087 L142.753764,7.087 L145.451764,7.087 C145.502431,6.555 145.679764,6.175 145.983764,5.947 C146.287764,5.719 146.705764,5.605 147.237764,5.605 C147.478431,5.605 147.703264,5.62083333 147.912264,5.6525 C148.121264,5.68416667 148.304931,5.7475 148.463264,5.8425 C148.621597,5.9375 148.748264,6.07366667 148.843264,6.251 C148.938264,6.42833333 148.985764,6.65633333 148.985764,6.935 C148.998431,7.21366667 148.916097,7.42583333 148.738764,7.5715 C148.561431,7.71716667 148.320764,7.828 148.016764,7.904 C147.712764,7.98 147.364431,8.037 146.971764,8.075 C146.579097,8.113 146.180097,8.16366667 145.774764,8.227 C145.369431,8.29033333 144.967264,8.37583333 144.568264,8.4835 C144.169264,8.59116667 143.814597,8.75266667 143.504264,8.968 C143.193931,9.18333333 142.940597,9.4715 142.744264,9.8325 C142.547931,10.1935 142.449764,10.6526667 142.449764,11.21 C142.449764,11.7166667 142.535264,12.1536667 142.706264,12.521 C142.877264,12.8883333 143.114764,13.1923333 143.418764,13.433 C143.722764,13.6736667 144.077431,13.851 144.482764,13.965 C144.888097,14.079 145.325097,14.136 145.793764,14.136 Z M146.800764,12.35 C146.585431,12.35 146.376431,12.331 146.173764,12.293 C145.971097,12.255 145.793764,12.1885 145.641764,12.0935 C145.489764,11.9985 145.369431,11.8718333 145.280764,11.7135 C145.192097,11.5551667 145.147764,11.3493333 145.147764,11.096 C145.147764,10.8426667 145.192097,10.6336667 145.280764,10.469 C145.369431,10.3043333 145.486597,10.1681667 145.632264,10.0605 C145.777931,9.95283333 145.945764,9.86733333 146.135764,9.804 C146.325764,9.74066667 146.528431,9.69 146.743764,9.652 C146.959097,9.614 147.174431,9.58233333 147.389764,9.557 C147.605097,9.53166667 147.814097,9.5 148.016764,9.462 C148.219431,9.424 148.403097,9.3765 148.567764,9.3195 C148.732431,9.2625 148.871764,9.18333333 148.985764,9.082 L148.985764,9.082 L148.985764,10.089 C148.985764,10.241 148.969931,10.4436667 148.938264,10.697 C148.906597,10.9503333 148.821097,11.2005 148.681764,11.4475 C148.542431,11.6945 148.327097,11.9066667 148.035764,12.084 C147.744431,12.2613333 147.332764,12.35 146.800764,12.35 Z M157.63939,2.888 C158.070057,2.888 158.481723,2.83733333 158.87439,2.736 C159.267057,2.63466667 159.609057,2.47316667 159.90039,2.2515 C160.191723,2.02983333 160.42289,1.748 160.59389,1.406 C160.76489,1.064 160.85039,0.646 160.85039,0.152 L160.85039,0.152 L158.83639,0.152 C158.823723,0.595333333 158.72239,0.915166667 158.53239,1.1115 C158.34239,1.30783333 158.044723,1.406 157.63939,1.406 C157.22139,1.406 156.923723,1.30466667 156.74639,1.102 C156.569057,0.899333333 156.467723,0.582666667 156.44239,0.152 L156.44239,0.152 L154.42839,0.152 C154.42839,0.646 154.51389,1.064 154.68489,1.406 C154.85589,1.748 155.087057,2.02983333 155.37839,2.2515 C155.669723,2.47316667 156.008557,2.63466667 156.39489,2.736 C156.781223,2.83733333 157.196057,2.888 157.63939,2.888 Z M156.04339,13.889 L159.74839,7.239 L159.74839,13.889 L162.33239,13.889 L162.33239,4.066 L159.27339,4.066 L155.56839,10.716 L155.56839,4.066 L152.98439,4.066 L152.98439,13.889 L156.04339,13.889 Z" id="Выиграй" fill="#FDCC08"></path>
            </g>
            <path d="M114.508,8.1248835 C113.971704,8.0753351 113.437213,8.2367587 113.018,8.5748835 C112.60182,8.92160594 112.336513,9.41636843 112.278,9.9548835 L112.178,11.0448835 C106.088825,3.8669382 97.0910056,-0.187302341 87.6801964,0.0066549797 C78.2693873,0.2006123 69.4462539,4.6221437 63.658,12.0448835 C63.2218739,12.6169367 63.1157372,13.3750559 63.378,14.0448835 C63.6328193,14.7360604 64.2469586,15.2312059 64.976457,15.3336283 C65.7059555,15.4360508 66.4327006,15.129167 66.868,14.5348835 C71.9616108,8.03606147 79.7289409,4.19951997 87.9854828,4.10425966 C96.2420247,4.00899935 104.095804,7.66531142 109.338,14.0448835 L107.748,13.8348835 C107.029839,13.728198 106.310265,14.0190898 105.868,14.5948835 C105.433736,15.1677122 105.327741,15.9248216 105.588,16.5948835 C105.859051,17.270385 106.47568,17.7453042 107.198,17.8348835 L113.408,18.6849676 L113.678,18.6849676 C114.139416,18.689114 114.5881,18.5336643 114.948,18.2448835 C115.377943,17.8982807 115.651562,17.3942463 115.708,16.8448835 L116.328,10.3548835 C116.392294,9.81590016 116.234751,9.2739337 115.891541,8.85340642 C115.54833,8.43287913 115.048933,8.16991476 114.508,8.1248835 Z" id="Path" fill="#FDCC08"></path>
        </g>
    </g>
</svg>