<?xml version="1.0" encoding="UTF-8"?>
<svg width="162px" height="49px" viewBox="0 0 162 49" version="1.1" xmlns="http://www.w3.org/2000/svg" xmlns:xlink="http://www.w3.org/1999/xlink">
    <!-- Generator: Sketch 60.1 (88133) - https://sketch.com -->
    <title>logoen</title>
    <desc>Created with Sketch.</desc>
    <g id="Page-1" stroke="none" stroke-width="1" fill="none" fill-rule="evenodd">
        <g id="logoen" transform="translate(-1.000000, 0.000000)" fill-rule="nonzero">
            <path d="M5.73,37.93 C5.96743998,38.3899485 6.31005574,38.7873828 6.73,39.09 C7.16304533,39.400634 7.65199371,39.6247354 8.17,39.75 C8.72748565,39.9036451 9.30186182,39.9876182 9.88,40 C10.311907,39.9992588 10.7431386,39.96583 11.17,39.9 C11.6173376,39.8421012 12.0527106,39.7138518 12.46,39.52 C12.8481446,39.3346461 13.1898426,39.0647047 13.46,38.73 C13.7344733,38.3647783 13.8756338,37.916594 13.86,37.46 C13.8855704,36.9547413 13.692482,36.4629122 13.33,36.11 C12.930801,35.7307133 12.4575893,35.4379349 11.94,35.25 C11.3104122,34.9880112 10.6618921,34.7740664 10,34.61 C9.27,34.44 8.53,34.25 7.79,34.03 C7.03274814,33.8435712 6.28794944,33.6097779 5.56,33.33 C4.85941907,33.0744624 4.20187098,32.7136539 3.61,32.26 C2.35921871,31.3169075 1.64348467,29.8257949 1.69,28.26 C1.66566756,27.3033331 1.89695046,26.3574896 2.36,25.52 C2.80418798,24.7598892 3.40395025,24.1021954 4.12,23.59 C4.86861345,23.065485 5.70517105,22.6793814 6.59,22.45 C7.48221873,22.176842 8.40725101,22.0254731 9.34,21.9999335 C10.3773528,21.9966832 11.411374,22.1175428 12.42,22.36 C13.3449982,22.5970687 14.2192054,23.0002883 15,23.55 C15.7567333,24.0837311 16.379657,24.785376 16.82,25.6 C17.2844976,26.5304492 17.5145066,27.5603399 17.49,28.6 L13.17,28.6 C13.1598229,28.0711277 13.0299013,27.5514413 12.79,27.08 C12.5841574,26.6949299 12.2806767,26.3707573 11.91,26.14 C11.5297484,25.902927 11.1095948,25.7368985 10.67,25.65 C10.1655628,25.5551405 9.65327592,25.5082646 9.14,25.51 C8.77397107,25.51146 8.40894028,25.548298 8.05,25.62 C7.69461429,25.6897222 7.35543255,25.8253949 7.05,26.02 C6.75744486,26.2043633 6.50838078,26.4500155 6.32,26.74 C6.10309089,27.0689203 5.99147455,27.4560895 6,27.85 C5.98138603,28.1983053 6.06108584,28.5448262 6.23,28.85 C6.4571417,29.1620187 6.76970928,29.4016539 7.13,29.54 C7.73499937,29.7931865 8.3606334,29.9939247 9,30.14 C9.79,30.35 10.82,30.62 12.1,30.94 C12.49,31.02 13.01,31.16 13.69,31.36 C14.4024371,31.5926277 15.0764356,31.929627 15.69,32.36 C16.3845324,32.8211666 16.9768008,33.4202427 17.43,34.12 C17.9478266,34.9667129 18.2019465,35.9483813 18.16,36.94 C18.1632131,37.8390961 17.9757579,38.7286564 17.61,39.55 C17.2428744,40.3593601 16.6874084,41.0691222 15.99,41.62 C15.2010455,42.2433012 14.2972372,42.7053987 13.33,42.98 C12.1348099,43.3267786 10.894288,43.4919568 9.65,43.47 C8.56101551,43.4512903 7.47889849,43.2933415 6.43,43 C5.41887132,42.7501993 4.4649953,42.3089044 3.62,41.7 C2.81195084,41.1086671 2.15144248,40.3386444 1.69,39.45 C1.1891256,38.4352115 0.95183106,37.3106417 1,36.18 L5.36,36.18 C5.33997258,36.7846736 5.46693676,37.3851799 5.73,37.93 Z" id="Path" fill="#000000"></path>
            <polygon id="Path" fill="#000000" points="32.91 43 30.27 33 30.22 33 27.7 43 23.49 43 18.79 28.19 23.08 28.19 25.81 38.25 25.86 38.25 28.33 28.19 32.33 28.19 34.85 38.19 34.91 38.19 37.63 28.19 41.81 28.19 37.09 43"></polygon>
            <path d="M43.31,25.87 L43.31,22.52 L47.37,22.52 L47.37,25.87 L43.31,25.87 Z M47.37,28.16 L47.37,43 L43.31,43 L43.31,28.16 L47.37,28.16 Z" id="Shape" fill="#000000"></path>
            <path d="M54.16,28.16 L54.16,30.05 L54.22,30.05 C54.6670868,29.2983026 55.323979,28.6935448 56.11,28.31 C56.8967083,27.9358444 57.7589374,27.7476595 58.63,27.76 C59.6687507,27.7331997 60.6984061,27.9597239 61.63,28.42 C62.4489903,28.8393652 63.1632575,29.4374359 63.72,30.17 C64.3044823,30.9237501 64.7389957,31.782593 65,32.7 C65.2682134,33.6773449 65.4027706,34.6865239 65.4,35.7 C65.4053094,36.6709201 65.2705898,37.6375328 65,38.57 C64.7408825,39.4537747 64.312999,40.2789787 63.74,41 C63.2058824,41.703705 62.5229557,42.280778 61.74,42.69 C60.8548466,43.1271601 59.8769454,43.3433277 58.89,43.32 C58.0158209,43.3313864 57.1505549,43.1432851 56.36,42.77 C55.5904307,42.395833 54.9320093,41.8270396 54.45,41.12 L54.39,41.12 L54.39,48.12 L50.3,48.12 L50.3,28.12 L54.16,28.16 Z M59.45,39.91 C59.8839131,39.6628797 60.2564931,39.3210631 60.54,38.91 C60.8248832,38.450395 61.0215774,37.9417031 61.12,37.41 C61.353266,36.2549933 61.353266,35.0650067 61.12,33.91 C61.0046185,33.3675992 60.7947561,32.8497131 60.5,32.38 C60.2229156,31.9362052 59.8463066,31.56302 59.4,31.29 C58.3606507,30.7441139 57.1193493,30.7441139 56.08,31.29 C55.6483632,31.5493768 55.2795309,31.9011335 55,32.32 C54.7135419,32.7834651 54.5136317,33.2950994 54.41,33.83 C54.2975551,34.4166774 54.2406369,35.0126443 54.2399825,35.61 C54.2387681,36.1985464 54.3024871,36.7854316 54.43,37.36 C54.5350358,37.8929449 54.7385122,38.4016359 55.03,38.86 C55.3122181,39.2758127 55.6892517,39.6185705 56.13,39.86 C57.1796114,40.3927052 58.4203886,40.3927052 59.47,39.86 L59.45,39.91 Z" id="Shape" fill="#000000"></path>
            <path d="M71.86,39.42 C73.2326056,40.500469 75.1340175,40.6083222 76.62,39.69 C77.1189751,39.3913245 77.5029152,38.9334143 77.71,38.39 L81.29,38.39 C80.8833683,39.9299915 79.9490526,41.2783788 78.65,42.2 C77.3615078,42.9896137 75.8704973,43.3858263 74.36,43.34 C73.2845841,43.3585738 72.2154907,43.1719067 71.21,42.79 C70.3118362,42.436784 69.5001484,41.894522 68.83,41.2 C68.1661685,40.4862223 67.6526555,39.6462375 67.32,38.73 C66.9579617,37.71973 66.7785002,36.6531192 66.79,35.58 C66.7833734,34.525079 66.9697745,33.4778438 67.34,32.49 C67.6800889,31.5623153 68.2077323,30.7146818 68.89,30 C69.5644669,29.2911973 70.3781537,28.729447 71.28,28.35 C72.2542632,27.9396042 73.3029295,27.7353186 74.36,27.75 C75.4992823,27.7265526 76.6275509,27.9768979 77.65,28.48 C78.566477,28.9558627 79.3578775,29.6410579 79.96,30.48 C80.5672056,31.325987 81.0083437,32.279524 81.26,33.29 C81.529182,34.367976 81.6270458,35.481598 81.55,36.59 L70.86,36.59 C70.8266224,37.6253621 71.1835478,38.6354611 71.86,39.42 Z M76.46,31.63 C75.8703375,31.0551165 75.0608274,30.7634011 74.24,30.83 C73.6815227,30.8105938 73.1263845,30.9236775 72.62,31.16 C72.234478,31.358308 71.8940414,31.6340616 71.62,31.97 C71.3762433,32.2647495 71.1927688,32.604517 71.08,32.97 C70.9792989,33.2951367 70.9155633,33.6305871 70.89,33.97 L77.51,33.97 C77.3857643,33.1071416 77.0219846,32.2964326 76.46,31.63 L76.46,31.63 Z" id="Shape" fill="#000000"></path>
            <path d="M95.8,42.74 C94.8055679,43.1532596 93.7367417,43.3574939 92.66,43.34 C91.7807672,43.346904 90.9061846,43.2118333 90.07,42.94 C89.3039713,42.6933653 88.5986062,42.2878655 88,41.75 C87.3995815,41.2207924 86.918896,40.569651 86.59,39.84 C86.2370297,39.0194656 86.0631606,38.133074 86.08,37.24 C86.0691516,36.5553655 86.1949376,35.875441 86.45,35.24 C86.6921564,34.64574 87.0299561,34.0951266 87.45,33.61 C87.8847944,33.1179833 88.3785078,32.681366 88.92,32.31 C89.4694386,31.9371658 90.0441607,31.603025 90.64,31.31 C90.1146276,30.6886631 89.6492204,30.0190125 89.25,29.31 C88.8683368,28.6003507 88.6722628,27.8057351 88.68,27 C88.6564509,26.305816 88.8113899,25.6171982 89.13,25 C89.4198246,24.4323823 89.8251703,23.9316611 90.32,23.53 C90.8235166,23.1116199 91.3998004,22.7895789 92.02,22.58 C92.6634106,22.3584909 93.3395339,22.2469306 94.02,22.2498914 C94.7619353,22.2459747 95.5002358,22.3538543 96.21,22.57 C96.8571812,22.7637249 97.4613593,23.079391 97.99,23.5 C98.4958024,23.917351 98.9051907,24.4393211 99.19,25.03 C99.4975738,25.693484 99.6481352,26.418916 99.63,27.15 C99.6669605,28.2375267 99.3120844,29.3021549 98.63,30.15 C97.8968349,31.0235193 97.0043326,31.7497379 96,32.29 L98.63,35.52 C98.8365133,35.1460194 99.0008539,34.7502603 99.12,34.34 C99.2315401,33.9288967 99.3183622,33.511483 99.38,33.09 L102.9,33.09 C102.801417,33.9994125 102.589784,34.8929772 102.27,35.75 C101.947443,36.6091493 101.491887,37.4122777 100.92,38.13 L105.07,43 L100.07,43 L98.41,41 C97.6531734,41.7340439 96.7686661,42.3237154 95.8,42.74 L95.8,42.74 Z M91.72,34.49 C91.3811479,34.697697 91.0717169,34.9499505 90.8,35.24 C90.5365682,35.5161216 90.3203486,35.8336941 90.16,36.18 C89.9940506,36.5405991 89.9087352,36.93305 89.9099861,37.33 C89.9192829,37.6775936 90.0046173,38.0189314 90.16,38.33 C90.3091846,38.65925 90.527456,38.9525522 90.8,39.19 C91.076593,39.4323563 91.3906731,39.6282342 91.73,39.77 C92.0833628,39.9096612 92.4600399,39.9809244 92.84,39.98 C93.5075051,39.9932483 94.1654805,39.8200969 94.74,39.48 C95.3112534,39.1244002 95.8268224,38.6863351 96.27,38.18 L92.78,34 C92.4145461,34.135722 92.0601529,34.2995452 91.72,34.49 Z M95.51,25.59 C95.1799688,25.2190815 94.706484,25.0078344 94.21,25.01 C93.7315173,25.0035567 93.2691513,25.1827683 92.92,25.51 C92.5590425,25.8480396 92.3621061,26.3257926 92.38,26.82 C92.363309,27.414296 92.5425137,27.9975898 92.89,28.48 C93.24,28.94 93.6,29.4 93.98,29.88 C94.5170658,29.5487558 95.0137424,29.1561128 95.46,28.71 C95.8803437,28.242426 96.099508,27.6280474 96.07,27 C96.0922093,26.4717717 95.8885757,25.9590513 95.51,25.59 L95.51,25.59 Z" id="Shape" fill="#000000"></path>
            <polygon id="Path" fill="#FDCC08" points="125.82 43 122.36 29.08 122.3 29.08 118.89 43 114.34 43 108.92 22.55 113.42 22.55 116.66 36.47 116.66 36.47 120.21 22.55 124.43 22.55 128 36.61 128 36.61 131.35 22.52 135.76 22.52 130.29 43"></polygon>
            <polygon id="Path" fill="#FDCC08" points="142.06 22.52 142.06 43 137.57 43 137.57 22.52"></polygon>
            <polygon id="Path" fill="#FDCC08" points="150.2 22.52 158.73 36.24 158.79 36.24 158.79 22.52 163 22.52 163 43 158.5 43 150 29.28 149.94 29.28 149.94 43 145.73 43 145.73 22.52"></polygon>
            <path d="M115.23,9.08 C114.693704,9.0304516 114.159213,9.1918752 113.74,9.53 C113.32382,9.87672244 113.058513,10.3714849 113,10.91 L112.9,12 C106.810825,4.82205469 97.8130056,0.767814155 88.4021964,0.961771476 C78.9913873,1.1557288 70.1682539,5.5772602 64.38,13 C63.9438739,13.5720532 63.8377372,14.3301724 64.1,15 C64.3548193,15.6911769 64.9689586,16.1863224 65.698457,16.2887448 C66.4279555,16.3911673 67.1547006,16.0842835 67.59,15.49 C72.6836108,8.99117797 80.4509409,5.15463647 88.7074828,5.05937616 C96.9640247,4.96411584 104.817804,8.62042792 110.06,15 L108.47,14.79 C107.751839,14.6833145 107.032265,14.9742063 106.59,15.55 C106.155736,16.1228287 106.049741,16.8799381 106.31,17.55 C106.581051,18.2255015 107.19768,18.7004207 107.92,18.79 L114.13,19.6400841 L114.4,19.6400841 C114.861416,19.6442305 115.3101,19.4887808 115.67,19.2 C116.099943,18.8533972 116.373562,18.3493628 116.43,17.8 L117.05,11.31 C117.114294,10.7710167 116.956751,10.2290502 116.613541,9.80852291 C116.27033,9.38799563 115.770933,9.12503126 115.23,9.08 Z" id="Path" fill="#FDCC08"></path>
        </g>
    </g>
</svg>