<?xml version="1.0" encoding="UTF-8"?>
<svg width="186px" height="41px" viewBox="0 0 186 41" version="1.1" xmlns="http://www.w3.org/2000/svg" xmlns:xlink="http://www.w3.org/1999/xlink">
    <!-- Generator: Sketch 60.1 (88133) - https://sketch.com -->
    <title>Group</title>
    <desc>Created with Sketch.</desc>
    <g id="Page-1" stroke="none" stroke-width="1" fill="none" fill-rule="evenodd">
        <g id="Group" transform="translate(0.779359, 0.000000)" fill-rule="nonzero">
            <path d="M120.492452,8.1248835 C119.956156,8.0753351 119.421665,8.2367587 119.002452,8.5748835 C118.586272,8.92160594 118.320964,9.41636843 118.262452,9.9548835 L118.162452,11.0448835 C112.073277,3.8669382 103.075457,-0.187302341 93.6646483,0.0066549797 C84.2538391,0.2006123 75.4307057,4.6221437 69.6424518,12.0448835 C69.2063257,12.6169367 69.100189,13.3750559 69.3624518,14.0448835 C69.6172711,14.7360604 70.2314104,15.2312059 70.9609089,15.3336283 C71.6904073,15.4360508 72.4171524,15.129167 72.8524518,14.5348835 C77.9460626,8.03606147 85.7133927,4.19951997 93.9699346,4.10425966 C102.226476,4.00899935 110.080256,7.66531142 115.322452,14.0448835 L113.732452,13.8348835 C113.014291,13.728198 112.294717,14.0190898 111.852452,14.5948835 C111.418188,15.1677122 111.312193,15.9248216 111.572452,16.5948835 C111.843503,17.270385 112.460132,17.7453042 113.182452,17.8348835 L119.392452,18.6849676 L119.662452,18.6849676 C120.123867,18.689114 120.572552,18.5336643 120.932452,18.2448835 C121.362395,17.8982807 121.636014,17.3942463 121.692452,16.8448835 L122.312452,10.3548835 C122.376745,9.81590016 122.219203,9.2739337 121.875992,8.85340642 C121.532782,8.43287913 121.033385,8.16991476 120.492452,8.1248835 Z" id="Path" fill="#FDCC08"></path>
            <path d="M6.92919922,36.2246094 C8.23193359,36.2246094 9.39054362,35.985026 10.4050293,35.5058594 C11.419515,35.0266927 12.2075195,34.3509928 12.769043,33.4787598 C13.3305664,32.6065267 13.6375326,31.6013997 13.6899414,30.4633789 L13.6899414,30.4633789 L9.77050781,30.4633789 C9.7405599,31.3917643 9.4860026,32.0693359 9.00683594,32.4960938 C8.52766927,32.9228516 7.8351237,33.1362305 6.92919922,33.1362305 C5.8585612,33.1362305 5.10424805,32.7618815 4.66625977,32.0131836 C4.22827148,31.2644857 4.00927734,30.0179036 4.00927734,28.2734375 L4.00927734,28.2734375 L4.00927734,27.1166992 C4.03173828,25.5069987 4.27132161,24.3352865 4.72802734,23.6015625 C5.18473307,22.8678385 5.90348307,22.5009766 6.88427734,22.5009766 C7.85009766,22.5009766 8.56884766,22.718099 9.04052734,23.1523438 C9.51220703,23.5865885 9.76302083,24.3015951 9.79296875,25.2973633 L9.79296875,25.2973633 L13.7236328,25.2973633 C13.5589193,23.4630534 12.8738607,22.0236816 11.668457,20.979248 C10.4630534,19.9348145 8.86832682,19.4125977 6.88427734,19.4125977 C5.50667318,19.4125977 4.29378255,19.740153 3.24560547,20.3952637 C2.19742839,21.0503743 1.39444987,21.9787598 0.836669922,23.1804199 C0.278889974,24.3820801 0,25.7840169 0,27.3862305 L0,27.3862305 L0,28.1948242 C0,30.7478841 0.617675781,32.7244466 1.85302734,34.1245117 C3.08837891,35.5245768 4.7804362,36.2246094 6.92919922,36.2246094 Z M18.5278776,36 L18.5278776,29.6210938 L20.8413542,36 L23.3569792,36 L25.8052214,29.2617188 L25.8052214,36 L29.6011198,36 L29.6011198,23.8486328 L24.839401,23.8486328 L22.0879362,31.8222656 L19.3813932,23.8486328 L14.7319792,23.8486328 L14.7319792,36 L18.5278776,36 Z M34.798431,36.2246094 C36.0487565,36.2246094 37.0220638,35.7866211 37.7183529,34.9106445 C37.8231706,35.3898112 37.9429622,35.7529297 38.0777279,36 L38.0777279,36 L41.8623958,36 L41.8623958,35.809082 C41.5329687,35.2176107 41.3607682,34.3640951 41.3457943,33.2485352 L41.3457943,33.2485352 L41.3457943,27.8691406 C41.3233333,26.5514323 40.8628841,25.5144857 39.9644466,24.7583008 C39.0660091,24.0021159 37.841888,23.6240234 36.2920833,23.6240234 C34.7422786,23.6240234 33.4676204,23.9908854 32.4681087,24.7246094 C31.468597,25.4583333 30.9688411,26.4129232 30.9688411,27.5883789 L30.9688411,27.5883789 L34.7535091,27.5883789 C34.7535091,26.7049154 35.2027279,26.2631836 36.1011654,26.2631836 C37.0669857,26.2631836 37.5498958,26.8209635 37.5498958,27.9365234 L37.5498958,27.9365234 L37.5498958,28.5766602 L36.3819271,28.5766602 C34.5251562,28.5766602 33.1101172,28.9135742 32.1368099,29.5874023 C31.1635026,30.2612305 30.676849,31.2569987 30.676849,32.574707 C30.676849,33.6228841 31.0774023,34.4932454 31.8785091,35.185791 C32.6796159,35.8783366 33.6529232,36.2246094 34.798431,36.2246094 Z M35.708099,33.5292969 C35.348724,33.5292969 35.0529883,33.4226074 34.8208919,33.2092285 C34.5887956,32.9958496 34.4727474,32.7169596 34.4727474,32.3725586 C34.4727474,31.1896159 35.1316016,30.5981445 36.4493099,30.5981445 L36.4493099,30.5981445 L37.5498958,30.5981445 L37.5498958,32.5410156 C37.4151302,32.7955729 37.1923926,33.0239258 36.8816829,33.2260742 C36.5709733,33.4282227 36.1797786,33.5292969 35.708099,33.5292969 Z M45.5772852,36 L47.4527734,32.40625 L49.3619531,36 L53.3150781,36 L49.957168,29.7670898 L53.1578516,23.8486328 L49.2271875,23.8486328 L47.4640039,27.1953125 L45.7569727,23.8486328 L41.7813867,23.8486328 L44.9708398,29.7670898 L41.6016992,36 L45.5772852,36 Z M57.187194,36 L57.187194,31.496582 L60.5001823,31.496582 L60.5001823,36 L64.2960807,36 L64.2960807,23.8486328 L60.5001823,23.8486328 L60.5001823,28.5878906 L57.187194,28.5878906 L57.187194,23.8486328 L53.402526,23.8486328 L53.402526,36 L57.187194,36 Z M69.2013997,36 L72.536849,28.9248047 L72.536849,36 L76.3327474,36 L76.3327474,23.8486328 L72.536849,23.8486328 L69.2013997,30.9013672 L69.2013997,23.8486328 L65.3942708,23.8486328 L65.3942708,36 L69.2013997,36 Z M86.0198503,36 L89.3552995,28.9248047 L89.3552995,36 L93.1511979,36 L93.1511979,23.8486328 L89.3552995,23.8486328 L86.0198503,30.9013672 L86.0198503,23.8486328 L82.2127214,23.8486328 L82.2127214,36 L86.0198503,36 Z" id="Смахнии" fill="#000000"></path>
            <path d="M104.241234,36 C106.23277,35.985026 107.735781,35.5751139 108.750267,34.7702637 C109.764753,33.9654134 110.271995,32.7618815 110.271995,31.159668 C110.271995,30.2762044 110.043643,29.5275065 109.586937,28.9135742 C109.130231,28.2996419 108.47512,27.8803711 107.621605,27.6557617 C108.37779,27.3712565 108.950544,26.9295247 109.339867,26.3305664 C109.729189,25.7316081 109.923851,25.0091146 109.923851,24.1630859 C109.923851,22.695638 109.37543,21.5763346 108.278587,20.8051758 C107.181745,20.0340169 105.581403,19.6484375 103.477562,19.6484375 L103.477562,19.6484375 L97.6040267,19.6484375 L97.6040267,36 L104.241234,36 Z M103.601097,26.465332 L101.545921,26.465332 L101.545921,22.6918945 L103.477562,22.6918945 C104.361025,22.6918945 105.001162,22.8435059 105.397972,23.1467285 C105.794782,23.4499512 105.993187,23.9459635 105.993187,24.6347656 C105.993187,25.233724 105.809756,25.6866862 105.442894,25.9936523 C105.076032,26.3006185 104.4621,26.4578451 103.601097,26.465332 L103.601097,26.465332 Z M104.128929,32.9677734 L101.545921,32.9677734 L101.545921,29.0483398 L104.308617,29.0483398 C105.66376,29.0558268 106.341331,29.7408854 106.341331,31.1035156 C106.341331,31.694987 106.150413,32.1535645 105.768577,32.479248 C105.386742,32.8049316 104.840192,32.9677734 104.128929,32.9677734 L104.128929,32.9677734 Z M117.288643,36 C119.040596,36 120.423815,35.6013184 121.438301,34.8039551 C122.452786,34.0065918 122.960029,32.9527995 122.960029,31.6425781 C122.960029,30.7516276 122.73542,29.9692383 122.286201,29.2954102 C121.836982,28.621582 121.185615,28.101237 120.3321,27.734375 C119.478584,27.367513 118.490303,27.184082 117.367256,27.184082 L117.367256,27.184082 L115.424385,27.184082 L115.424385,23.8486328 L111.617256,23.8486328 L111.617256,36 L117.288643,36 Z M128.564033,36 L128.564033,23.8486328 L124.756904,23.8486328 L124.756904,36 L128.564033,36 Z M117.344795,33.1025391 L115.424385,33.1025391 L115.424385,30.0927734 L117.344795,30.0927734 C117.988675,30.0927734 118.456611,30.235026 118.748604,30.5195312 C119.040596,30.8040365 119.186592,31.1708984 119.186592,31.6201172 C119.186592,32.0768229 119.02375,32.4380697 118.698066,32.7038574 C118.372383,32.9696452 117.921292,33.1025391 117.344795,33.1025391 L117.344795,33.1025391 Z M133.806266,36 L137.141715,28.9248047 L137.141715,36 L140.937614,36 L140.937614,23.8486328 L137.141715,23.8486328 L133.806266,30.9013672 L133.806266,23.8486328 L129.999137,23.8486328 L129.999137,36 L133.806266,36 Z M145.786781,36 L145.786781,26.7685547 L150.57096,26.7685547 L150.57096,23.8486328 L141.990882,23.8486328 L141.990882,36 L145.786781,36 Z M154.600303,40.671875 L154.600303,35.0004883 C155.319053,35.816569 156.236208,36.2246094 157.351768,36.2246094 C158.796755,36.2246094 159.944134,35.6612142 160.793906,34.5344238 C161.643678,33.4076335 162.068564,31.9008789 162.068564,30.0141602 L162.068564,30.0141602 L162.068564,29.8344727 C162.068564,27.902832 161.653037,26.384847 160.821982,25.2805176 C159.990928,24.1761882 158.826702,23.6240234 157.329307,23.6240234 C156.146364,23.6240234 155.191774,24.0732422 154.465537,24.9716797 L154.465537,24.9716797 L154.353232,23.8486328 L150.815635,23.8486328 L150.815635,40.671875 L154.600303,40.671875 Z M156.419639,33.3046875 C155.536175,33.3046875 154.92973,32.9677734 154.600303,32.2939453 L154.600303,32.2939453 L154.600303,27.5097656 C154.899782,26.8658854 155.49874,26.5439453 156.397178,26.5439453 C157.65499,26.5439453 158.283896,27.6220703 158.283896,29.7783203 L158.283896,29.7783203 L158.283896,30.1826172 C158.246462,32.2639974 157.625042,33.3046875 156.419639,33.3046875 Z M166.40113,36.2246094 C167.651455,36.2246094 168.624762,35.7866211 169.321051,34.9106445 C169.425869,35.3898112 169.545661,35.7529297 169.680426,36 L169.680426,36 L173.465094,36 L173.465094,35.809082 C173.135667,35.2176107 172.963467,34.3640951 172.948493,33.2485352 L172.948493,33.2485352 L172.948493,27.8691406 C172.926032,26.5514323 172.465583,25.5144857 171.567145,24.7583008 C170.668708,24.0021159 169.444587,23.6240234 167.894782,23.6240234 C166.344977,23.6240234 165.070319,23.9908854 164.070807,24.7246094 C163.071296,25.4583333 162.57154,26.4129232 162.57154,27.5883789 L162.57154,27.5883789 L166.356208,27.5883789 C166.356208,26.7049154 166.805426,26.2631836 167.703864,26.2631836 C168.669684,26.2631836 169.152594,26.8209635 169.152594,27.9365234 L169.152594,27.9365234 L169.152594,28.5766602 L167.984626,28.5766602 C166.127855,28.5766602 164.712816,28.9135742 163.739508,29.5874023 C162.766201,30.2612305 162.279548,31.2569987 162.279548,32.574707 C162.279548,33.6228841 162.680101,34.4932454 163.481208,35.185791 C164.282314,35.8783366 165.255622,36.2246094 166.40113,36.2246094 Z M167.310798,33.5292969 C166.951423,33.5292969 166.655687,33.4226074 166.42359,33.2092285 C166.191494,32.9958496 166.075446,32.7169596 166.075446,32.3725586 C166.075446,31.1896159 166.7343,30.5981445 168.052008,30.5981445 L168.052008,30.5981445 L169.152594,30.5981445 L169.152594,32.5410156 C169.017829,32.7955729 168.795091,33.0239258 168.484382,33.2260742 C168.173672,33.4282227 167.782477,33.5292969 167.310798,33.5292969 Z M179.628226,22.175293 C180.886038,22.175293 181.893037,21.8570964 182.649222,21.2207031 C183.405407,20.5843099 183.783499,19.7532552 183.783499,18.7275391 L183.783499,18.7275391 L181.189261,18.7275391 C181.189261,19.1917318 181.052624,19.5454915 180.779349,19.7888184 C180.506074,20.0321452 180.122367,20.1538086 179.628226,20.1538086 C179.134085,20.1538086 178.746634,20.0284017 178.465872,19.7775879 C178.185111,19.5267741 178.04473,19.1767578 178.04473,18.7275391 L178.04473,18.7275391 L175.472952,18.7275391 C175.472952,19.7532552 175.851045,20.5843099 176.60723,21.2207031 C177.363415,21.8570964 178.370413,22.175293 179.628226,22.175293 Z M177.876273,36 L181.211722,28.9248047 L181.211722,36 L185.00762,36 L185.00762,23.8486328 L181.211722,23.8486328 L177.876273,30.9013672 L177.876273,23.8486328 L174.069144,23.8486328 L174.069144,36 L177.876273,36 Z" id="Выиграй" fill="#FDCC08"></path>
        </g>
    </g>
</svg>